<mxfile host="Electron" agent="Mozilla/5.0 (Windows NT 10.0; Win64; x64) AppleWebKit/537.36 (KHTML, like Gecko) draw.io/24.7.17 Chrome/128.0.6613.36 Electron/32.0.1 Safari/537.36" version="24.7.17">
  <diagram name="Page-1" id="YsZIqcaT08q3RIHYgomM">
    <mxGraphModel dx="875" dy="518" grid="1" gridSize="10" guides="1" tooltips="1" connect="1" arrows="1" fold="1" page="1" pageScale="1" pageWidth="850" pageHeight="1100" math="0" shadow="0">
      <root>
        <mxCell id="0" />
        <mxCell id="1" parent="0" />
        <mxCell id="mCKGkqLL3HLn8yg70_FA-6" value="Denoising" style="rounded=1;whiteSpace=wrap;html=1;" parent="1" vertex="1">
          <mxGeometry x="250" y="489" width="80" height="40" as="geometry" />
        </mxCell>
        <mxCell id="mCKGkqLL3HLn8yg70_FA-7" value="Sharpening" style="rounded=1;whiteSpace=wrap;html=1;" parent="1" vertex="1">
          <mxGeometry x="250" y="539" width="80" height="40" as="geometry" />
        </mxCell>
        <mxCell id="mCKGkqLL3HLn8yg70_FA-8" value="Edge Detection" style="rounded=1;whiteSpace=wrap;html=1;" parent="1" vertex="1">
          <mxGeometry x="250" y="589" width="80" height="40" as="geometry" />
        </mxCell>
        <mxCell id="mCKGkqLL3HLn8yg70_FA-15" value="Camera2 API" style="rounded=1;whiteSpace=wrap;html=1;" parent="1" vertex="1">
          <mxGeometry x="135" y="410" width="80" height="40" as="geometry" />
        </mxCell>
        <mxCell id="mCKGkqLL3HLn8yg70_FA-41" style="edgeStyle=orthogonalEdgeStyle;rounded=0;orthogonalLoop=1;jettySize=auto;html=1;exitX=1;exitY=0.5;exitDx=0;exitDy=0;entryX=0;entryY=0.5;entryDx=0;entryDy=0;" parent="1" source="mCKGkqLL3HLn8yg70_FA-19" target="mCKGkqLL3HLn8yg70_FA-26" edge="1">
          <mxGeometry relative="1" as="geometry" />
        </mxCell>
        <mxCell id="mCKGkqLL3HLn8yg70_FA-19" value="Pre-processing" style="rounded=1;whiteSpace=wrap;html=1;" parent="1" vertex="1">
          <mxGeometry x="250" y="320" width="80" height="40" as="geometry" />
        </mxCell>
        <mxCell id="mCKGkqLL3HLn8yg70_FA-24" value="Extract Position (X,Y)" style="rounded=1;whiteSpace=wrap;html=1;" parent="1" vertex="1">
          <mxGeometry x="350" y="489" width="80" height="40" as="geometry" />
        </mxCell>
        <mxCell id="mCKGkqLL3HLn8yg70_FA-45" style="edgeStyle=orthogonalEdgeStyle;rounded=0;orthogonalLoop=1;jettySize=auto;html=1;exitX=1;exitY=0.5;exitDx=0;exitDy=0;entryX=0;entryY=0.5;entryDx=0;entryDy=0;" parent="1" source="mCKGkqLL3HLn8yg70_FA-26" target="mCKGkqLL3HLn8yg70_FA-44" edge="1">
          <mxGeometry relative="1" as="geometry" />
        </mxCell>
        <mxCell id="mCKGkqLL3HLn8yg70_FA-26" value="Feature Extraction" style="rounded=1;whiteSpace=wrap;html=1;" parent="1" vertex="1">
          <mxGeometry x="350" y="320" width="80" height="40" as="geometry" />
        </mxCell>
        <mxCell id="mCKGkqLL3HLn8yg70_FA-27" value="Extract Time (T)" style="rounded=1;whiteSpace=wrap;html=1;" parent="1" vertex="1">
          <mxGeometry x="350" y="589" width="80" height="40" as="geometry" />
        </mxCell>
        <mxCell id="mCKGkqLL3HLn8yg70_FA-33" style="edgeStyle=orthogonalEdgeStyle;rounded=0;orthogonalLoop=1;jettySize=auto;html=1;exitX=1;exitY=0.5;exitDx=0;exitDy=0;" parent="1" source="mCKGkqLL3HLn8yg70_FA-28" target="mCKGkqLL3HLn8yg70_FA-32" edge="1">
          <mxGeometry relative="1" as="geometry" />
        </mxCell>
        <mxCell id="mCKGkqLL3HLn8yg70_FA-28" value="Gesture Smoothing" style="rounded=1;whiteSpace=wrap;html=1;" parent="1" vertex="1">
          <mxGeometry x="550" y="320" width="80" height="40" as="geometry" />
        </mxCell>
        <mxCell id="bWVU-9dq-vD-51jnF8fI-23" style="edgeStyle=orthogonalEdgeStyle;rounded=0;orthogonalLoop=1;jettySize=auto;html=1;exitX=1;exitY=0.5;exitDx=0;exitDy=0;entryX=0;entryY=0.5;entryDx=0;entryDy=0;fontFamily=Helvetica;fontSize=12;fontColor=default;fontStyle=0;" parent="1" source="mCKGkqLL3HLn8yg70_FA-32" target="mCKGkqLL3HLn8yg70_FA-152" edge="1">
          <mxGeometry relative="1" as="geometry" />
        </mxCell>
        <mxCell id="mCKGkqLL3HLn8yg70_FA-32" value="Output Data" style="rounded=1;whiteSpace=wrap;html=1;" parent="1" vertex="1">
          <mxGeometry x="650" y="320" width="80" height="40" as="geometry" />
        </mxCell>
        <mxCell id="mCKGkqLL3HLn8yg70_FA-34" value="OpenCV" style="rounded=1;whiteSpace=wrap;html=1;" parent="1" vertex="1">
          <mxGeometry x="250" y="410" width="80" height="40" as="geometry" />
        </mxCell>
        <mxCell id="mCKGkqLL3HLn8yg70_FA-35" value="Kalman&amp;nbsp; Filters" style="rounded=1;whiteSpace=wrap;html=1;" parent="1" vertex="1">
          <mxGeometry x="550" y="489" width="80" height="40" as="geometry" />
        </mxCell>
        <mxCell id="mCKGkqLL3HLn8yg70_FA-36" value="Moving Average Filter" style="rounded=1;whiteSpace=wrap;html=1;" parent="1" vertex="1">
          <mxGeometry x="550" y="539" width="80" height="40" as="geometry" />
        </mxCell>
        <mxCell id="mCKGkqLL3HLn8yg70_FA-37" value="Spline Interpolation" style="rounded=1;whiteSpace=wrap;html=1;" parent="1" vertex="1">
          <mxGeometry x="550" y="589" width="80" height="40" as="geometry" />
        </mxCell>
        <mxCell id="mCKGkqLL3HLn8yg70_FA-38" value="Thresholding" style="rounded=1;whiteSpace=wrap;html=1;" parent="1" vertex="1">
          <mxGeometry x="250" y="639" width="80" height="40" as="geometry" />
        </mxCell>
        <mxCell id="mCKGkqLL3HLn8yg70_FA-40" value="Extract Depth (Z)" style="rounded=1;whiteSpace=wrap;html=1;" parent="1" vertex="1">
          <mxGeometry x="350" y="539" width="80" height="40" as="geometry" />
        </mxCell>
        <mxCell id="mCKGkqLL3HLn8yg70_FA-46" style="edgeStyle=orthogonalEdgeStyle;rounded=0;orthogonalLoop=1;jettySize=auto;html=1;exitX=1;exitY=0.5;exitDx=0;exitDy=0;entryX=0;entryY=0.5;entryDx=0;entryDy=0;" parent="1" source="mCKGkqLL3HLn8yg70_FA-44" target="mCKGkqLL3HLn8yg70_FA-28" edge="1">
          <mxGeometry relative="1" as="geometry" />
        </mxCell>
        <mxCell id="mCKGkqLL3HLn8yg70_FA-44" value="Path Reconstruction" style="rounded=1;whiteSpace=wrap;html=1;" parent="1" vertex="1">
          <mxGeometry x="450" y="320" width="80" height="40" as="geometry" />
        </mxCell>
        <mxCell id="mCKGkqLL3HLn8yg70_FA-59" value="NumPy" style="rounded=1;whiteSpace=wrap;html=1;" parent="1" vertex="1">
          <mxGeometry x="450" y="410" width="80" height="40" as="geometry" />
        </mxCell>
        <mxCell id="mCKGkqLL3HLn8yg70_FA-61" value="3D Position (X,Y,Z)" style="rounded=1;whiteSpace=wrap;html=1;" parent="1" vertex="1">
          <mxGeometry x="450" y="489" width="80" height="40" as="geometry" />
        </mxCell>
        <mxCell id="mCKGkqLL3HLn8yg70_FA-62" value="Time" style="rounded=1;whiteSpace=wrap;html=1;" parent="1" vertex="1">
          <mxGeometry x="450" y="539" width="80" height="40" as="geometry" />
        </mxCell>
        <mxCell id="mCKGkqLL3HLn8yg70_FA-67" style="edgeStyle=orthogonalEdgeStyle;rounded=0;orthogonalLoop=1;jettySize=auto;html=1;entryX=0.5;entryY=1;entryDx=0;entryDy=0;" parent="1" source="bWVU-9dq-vD-51jnF8fI-1" target="mCKGkqLL3HLn8yg70_FA-32" edge="1">
          <mxGeometry relative="1" as="geometry" />
        </mxCell>
        <mxCell id="mCKGkqLL3HLn8yg70_FA-66" value="(&lt;span style=&quot;font-size:10.0pt;line-height:115%;&lt;br/&gt;font-family:&amp;quot;Calibri&amp;quot;,sans-serif;mso-fareast-font-family:Aptos;mso-fareast-theme-font:&lt;br/&gt;minor-latin;mso-ansi-language:EN-US;mso-fareast-language:EN-US;mso-bidi-language:&lt;br/&gt;AR-SA&quot;&gt;X, Y, Z, T)&lt;/span&gt;" style="rounded=1;whiteSpace=wrap;html=1;" parent="1" vertex="1">
          <mxGeometry x="650" y="489" width="80" height="40" as="geometry" />
        </mxCell>
        <mxCell id="mCKGkqLL3HLn8yg70_FA-68" value="FilterPy&lt;br&gt;SciPy" style="rounded=1;whiteSpace=wrap;html=1;" parent="1" vertex="1">
          <mxGeometry x="550" y="410" width="80" height="40" as="geometry" />
        </mxCell>
        <mxCell id="mCKGkqLL3HLn8yg70_FA-86" value="Filter for Privacy" style="rounded=1;whiteSpace=wrap;html=1;" parent="1" vertex="1">
          <mxGeometry x="350" y="639" width="80" height="40" as="geometry" />
        </mxCell>
        <mxCell id="mCKGkqLL3HLn8yg70_FA-112" style="edgeStyle=orthogonalEdgeStyle;rounded=0;orthogonalLoop=1;jettySize=auto;html=1;entryX=0.5;entryY=1;entryDx=0;entryDy=0;" parent="1" source="mCKGkqLL3HLn8yg70_FA-107" target="mCKGkqLL3HLn8yg70_FA-59" edge="1">
          <mxGeometry relative="1" as="geometry" />
        </mxCell>
        <mxCell id="mCKGkqLL3HLn8yg70_FA-107" value="" style="labelPosition=right;align=left;strokeWidth=1;shape=mxgraph.mockup.markup.curlyBrace;html=1;shadow=0;dashed=0;strokeColor=#999999;direction=east;" parent="1" vertex="1">
          <mxGeometry x="455" y="470" width="70" height="20" as="geometry" />
        </mxCell>
        <mxCell id="mCKGkqLL3HLn8yg70_FA-115" style="edgeStyle=orthogonalEdgeStyle;rounded=0;orthogonalLoop=1;jettySize=auto;html=1;entryX=0.5;entryY=1;entryDx=0;entryDy=0;" parent="1" source="mCKGkqLL3HLn8yg70_FA-113" target="mCKGkqLL3HLn8yg70_FA-34" edge="1">
          <mxGeometry relative="1" as="geometry" />
        </mxCell>
        <mxCell id="mCKGkqLL3HLn8yg70_FA-113" value="" style="verticalLabelPosition=bottom;shadow=0;dashed=0;align=center;html=1;verticalAlign=top;strokeWidth=1;shape=mxgraph.mockup.markup.curlyBrace;whiteSpace=wrap;strokeColor=#999999;" parent="1" vertex="1">
          <mxGeometry x="260" y="470" width="60" height="20" as="geometry" />
        </mxCell>
        <mxCell id="mCKGkqLL3HLn8yg70_FA-116" value="OpenCV" style="rounded=1;whiteSpace=wrap;html=1;" parent="1" vertex="1">
          <mxGeometry x="350" y="410" width="80" height="40" as="geometry" />
        </mxCell>
        <mxCell id="mCKGkqLL3HLn8yg70_FA-117" style="edgeStyle=orthogonalEdgeStyle;rounded=0;orthogonalLoop=1;jettySize=auto;html=1;entryX=0.5;entryY=1;entryDx=0;entryDy=0;" parent="1" source="mCKGkqLL3HLn8yg70_FA-118" target="mCKGkqLL3HLn8yg70_FA-116" edge="1">
          <mxGeometry relative="1" as="geometry" />
        </mxCell>
        <mxCell id="mCKGkqLL3HLn8yg70_FA-118" value="" style="verticalLabelPosition=bottom;shadow=0;dashed=0;align=center;html=1;verticalAlign=top;strokeWidth=1;shape=mxgraph.mockup.markup.curlyBrace;whiteSpace=wrap;strokeColor=#999999;" parent="1" vertex="1">
          <mxGeometry x="360" y="470" width="60" height="20" as="geometry" />
        </mxCell>
        <mxCell id="mCKGkqLL3HLn8yg70_FA-120" value="&amp;lt;&amp;lt;include&amp;gt;&amp;gt;" style="html=1;verticalAlign=bottom;labelBackgroundColor=none;endArrow=open;endFill=0;dashed=1;rounded=0;entryX=0.5;entryY=0;entryDx=0;entryDy=0;exitX=0.5;exitY=1;exitDx=0;exitDy=0;" parent="1" source="mCKGkqLL3HLn8yg70_FA-19" target="mCKGkqLL3HLn8yg70_FA-34" edge="1">
          <mxGeometry x="0.2" width="160" relative="1" as="geometry">
            <mxPoint x="260" y="390" as="sourcePoint" />
            <mxPoint x="460" y="440" as="targetPoint" />
            <mxPoint as="offset" />
          </mxGeometry>
        </mxCell>
        <mxCell id="mCKGkqLL3HLn8yg70_FA-124" style="edgeStyle=orthogonalEdgeStyle;rounded=0;orthogonalLoop=1;jettySize=auto;html=1;entryX=0.5;entryY=1;entryDx=0;entryDy=0;" parent="1" source="mCKGkqLL3HLn8yg70_FA-125" edge="1">
          <mxGeometry relative="1" as="geometry">
            <mxPoint x="590" y="450" as="targetPoint" />
          </mxGeometry>
        </mxCell>
        <mxCell id="bWVU-9dq-vD-51jnF8fI-5" value="" style="edgeStyle=orthogonalEdgeStyle;rounded=0;orthogonalLoop=1;jettySize=auto;html=1;" parent="1" source="mCKGkqLL3HLn8yg70_FA-125" target="mCKGkqLL3HLn8yg70_FA-68" edge="1">
          <mxGeometry relative="1" as="geometry" />
        </mxCell>
        <mxCell id="mCKGkqLL3HLn8yg70_FA-125" value="" style="labelPosition=right;align=left;strokeWidth=1;shape=mxgraph.mockup.markup.curlyBrace;html=1;shadow=0;dashed=0;strokeColor=#999999;direction=east;" parent="1" vertex="1">
          <mxGeometry x="555" y="470" width="70" height="20" as="geometry" />
        </mxCell>
        <mxCell id="LBkVl-cwmhyP7xec1Vsl-5" style="edgeStyle=orthogonalEdgeStyle;rounded=0;orthogonalLoop=1;jettySize=auto;html=1;exitX=0.5;exitY=0;exitDx=0;exitDy=0;entryX=0.5;entryY=1;entryDx=0;entryDy=0;" edge="1" parent="1" source="mCKGkqLL3HLn8yg70_FA-128" target="bWVU-9dq-vD-51jnF8fI-26">
          <mxGeometry relative="1" as="geometry" />
        </mxCell>
        <mxCell id="mCKGkqLL3HLn8yg70_FA-128" value="User" style="image;aspect=fixed;perimeter=ellipsePerimeter;html=1;align=center;shadow=0;dashed=0;spacingTop=3;image=img/lib/active_directory/user.svg;" parent="1" vertex="1">
          <mxGeometry x="60.75" y="400" width="18.5" height="50" as="geometry" />
        </mxCell>
        <mxCell id="mCKGkqLL3HLn8yg70_FA-132" value="Hardware Exception" style="ellipse;whiteSpace=wrap;html=1;" parent="1" vertex="1">
          <mxGeometry x="10" y="200" width="120" height="60" as="geometry" />
        </mxCell>
        <mxCell id="mCKGkqLL3HLn8yg70_FA-143" value="Software/Data Exception" style="ellipse;whiteSpace=wrap;html=1;" parent="1" vertex="1">
          <mxGeometry x="430" y="200" width="120" height="60" as="geometry" />
        </mxCell>
        <mxCell id="mCKGkqLL3HLn8yg70_FA-145" value="" style="endArrow=none;html=1;rounded=0;exitX=1;exitY=0.5;exitDx=0;exitDy=0;entryX=0;entryY=0.5;entryDx=0;entryDy=0;" parent="1" source="mCKGkqLL3HLn8yg70_FA-132" target="mCKGkqLL3HLn8yg70_FA-143" edge="1">
          <mxGeometry width="50" height="50" relative="1" as="geometry">
            <mxPoint x="360" y="390" as="sourcePoint" />
            <mxPoint x="410" y="340" as="targetPoint" />
          </mxGeometry>
        </mxCell>
        <mxCell id="mCKGkqLL3HLn8yg70_FA-148" value="" style="verticalLabelPosition=bottom;shadow=0;dashed=0;align=center;html=1;verticalAlign=top;strokeWidth=1;shape=mxgraph.mockup.markup.curlyBrace;whiteSpace=wrap;strokeColor=#999999;" parent="1" vertex="1">
          <mxGeometry x="260" y="300" width="460" height="20" as="geometry" />
        </mxCell>
        <mxCell id="mCKGkqLL3HLn8yg70_FA-149" value="&amp;lt;&amp;lt;extend&amp;gt;&amp;gt;" style="html=1;verticalAlign=bottom;labelBackgroundColor=none;endArrow=open;endFill=0;dashed=1;rounded=0;exitX=0.5;exitY=1;exitDx=0;exitDy=0;" parent="1" source="mCKGkqLL3HLn8yg70_FA-143" target="mCKGkqLL3HLn8yg70_FA-148" edge="1">
          <mxGeometry x="0.5" width="160" relative="1" as="geometry">
            <mxPoint x="640" y="140" as="sourcePoint" />
            <mxPoint x="640" y="250" as="targetPoint" />
            <mxPoint as="offset" />
          </mxGeometry>
        </mxCell>
        <mxCell id="mCKGkqLL3HLn8yg70_FA-151" value="&amp;lt;&amp;lt;extend&amp;gt;&amp;gt;" style="html=1;verticalAlign=bottom;labelBackgroundColor=none;endArrow=open;endFill=0;dashed=1;rounded=0;exitX=0.5;exitY=1;exitDx=0;exitDy=0;entryX=0.5;entryY=0;entryDx=0;entryDy=0;" parent="1" source="mCKGkqLL3HLn8yg70_FA-132" target="bWVU-9dq-vD-51jnF8fI-26" edge="1">
          <mxGeometry width="160" relative="1" as="geometry">
            <mxPoint x="685" y="150" as="sourcePoint" />
            <mxPoint x="685" y="260" as="targetPoint" />
            <mxPoint as="offset" />
          </mxGeometry>
        </mxCell>
        <mxCell id="mCKGkqLL3HLn8yg70_FA-152" value="Machine Learning Module" style="rounded=1;whiteSpace=wrap;html=1;" parent="1" vertex="1">
          <mxGeometry x="770" y="310" width="70" height="60" as="geometry" />
        </mxCell>
        <mxCell id="mCKGkqLL3HLn8yg70_FA-155" value="" style="endArrow=none;html=1;rounded=0;entryX=1;entryY=0;entryDx=0;entryDy=0;" parent="1" target="mCKGkqLL3HLn8yg70_FA-157" edge="1">
          <mxGeometry width="50" height="50" relative="1" as="geometry">
            <mxPoint x="750" y="120" as="sourcePoint" />
            <mxPoint x="630" y="120" as="targetPoint" />
          </mxGeometry>
        </mxCell>
        <mxCell id="mCKGkqLL3HLn8yg70_FA-156" value="" style="endArrow=none;html=1;rounded=0;exitX=0;exitY=0;exitDx=0;exitDy=0;" parent="1" source="mCKGkqLL3HLn8yg70_FA-157" edge="1">
          <mxGeometry width="50" height="50" relative="1" as="geometry">
            <mxPoint x="360" y="120" as="sourcePoint" />
            <mxPoint x="230" y="120" as="targetPoint" />
          </mxGeometry>
        </mxCell>
        <mxCell id="mCKGkqLL3HLn8yg70_FA-157" value="Image Processing Module" style="rounded=1;whiteSpace=wrap;html=1;" parent="1" vertex="1">
          <mxGeometry x="410" y="120" width="160" height="40" as="geometry" />
        </mxCell>
        <mxCell id="mCKGkqLL3HLn8yg70_FA-158" value="" style="endArrow=none;html=1;rounded=0;" parent="1" edge="1">
          <mxGeometry width="50" height="50" relative="1" as="geometry">
            <mxPoint x="230" y="120" as="sourcePoint" />
            <mxPoint x="230" y="720" as="targetPoint" />
          </mxGeometry>
        </mxCell>
        <mxCell id="mCKGkqLL3HLn8yg70_FA-159" value="" style="endArrow=none;html=1;rounded=0;" parent="1" edge="1">
          <mxGeometry width="50" height="50" relative="1" as="geometry">
            <mxPoint x="750" y="120" as="sourcePoint" />
            <mxPoint x="750" y="720" as="targetPoint" />
          </mxGeometry>
        </mxCell>
        <mxCell id="mCKGkqLL3HLn8yg70_FA-160" value="" style="endArrow=none;html=1;rounded=0;" parent="1" edge="1">
          <mxGeometry width="50" height="50" relative="1" as="geometry">
            <mxPoint x="750" y="720" as="sourcePoint" />
            <mxPoint x="230" y="720" as="targetPoint" />
          </mxGeometry>
        </mxCell>
        <mxCell id="bWVU-9dq-vD-51jnF8fI-1" value="Numpy 4D Array" style="rounded=1;whiteSpace=wrap;html=1;" parent="1" vertex="1">
          <mxGeometry x="650" y="410" width="80" height="40" as="geometry" />
        </mxCell>
        <mxCell id="bWVU-9dq-vD-51jnF8fI-3" value="" style="labelPosition=right;align=left;strokeWidth=1;shape=mxgraph.mockup.markup.curlyBrace;html=1;shadow=0;dashed=0;strokeColor=#999999;direction=east;" parent="1" vertex="1">
          <mxGeometry x="655" y="469" width="70" height="20" as="geometry" />
        </mxCell>
        <mxCell id="bWVU-9dq-vD-51jnF8fI-4" style="edgeStyle=orthogonalEdgeStyle;rounded=0;orthogonalLoop=1;jettySize=auto;html=1;entryX=0.5;entryY=1;entryDx=0;entryDy=0;exitX=0.5;exitY=0.11;exitDx=0;exitDy=0;exitPerimeter=0;" parent="1" source="bWVU-9dq-vD-51jnF8fI-3" target="bWVU-9dq-vD-51jnF8fI-1" edge="1">
          <mxGeometry relative="1" as="geometry">
            <mxPoint x="710" y="589" as="targetPoint" />
            <mxPoint x="710" y="470" as="sourcePoint" />
            <Array as="points" />
          </mxGeometry>
        </mxCell>
        <mxCell id="bWVU-9dq-vD-51jnF8fI-35" style="edgeStyle=orthogonalEdgeStyle;rounded=0;orthogonalLoop=1;jettySize=auto;html=1;exitX=1;exitY=0.5;exitDx=0;exitDy=0;entryX=0;entryY=0.5;entryDx=0;entryDy=0;fontFamily=Helvetica;fontSize=12;fontColor=default;fontStyle=0;" parent="1" source="bWVU-9dq-vD-51jnF8fI-26" target="bWVU-9dq-vD-51jnF8fI-34" edge="1">
          <mxGeometry relative="1" as="geometry" />
        </mxCell>
        <mxCell id="bWVU-9dq-vD-51jnF8fI-26" value="Mobile App Module" style="rounded=1;whiteSpace=wrap;html=1;" parent="1" vertex="1">
          <mxGeometry x="25" y="320" width="90" height="40" as="geometry" />
        </mxCell>
        <mxCell id="bWVU-9dq-vD-51jnF8fI-29" value="&amp;lt;&amp;lt;include&amp;gt;&amp;gt;" style="html=1;verticalAlign=bottom;labelBackgroundColor=none;endArrow=open;endFill=0;dashed=1;rounded=0;entryX=0.5;entryY=0;entryDx=0;entryDy=0;exitX=0.5;exitY=1;exitDx=0;exitDy=0;" parent="1" edge="1">
          <mxGeometry x="0.2" width="160" relative="1" as="geometry">
            <mxPoint x="389.57" y="360" as="sourcePoint" />
            <mxPoint x="389.57" y="410" as="targetPoint" />
            <mxPoint as="offset" />
          </mxGeometry>
        </mxCell>
        <mxCell id="bWVU-9dq-vD-51jnF8fI-30" value="&amp;lt;&amp;lt;include&amp;gt;&amp;gt;" style="html=1;verticalAlign=bottom;labelBackgroundColor=none;endArrow=open;endFill=0;dashed=1;rounded=0;entryX=0.5;entryY=0;entryDx=0;entryDy=0;exitX=0.5;exitY=1;exitDx=0;exitDy=0;" parent="1" edge="1">
          <mxGeometry x="0.2" width="160" relative="1" as="geometry">
            <mxPoint x="489.57" y="360" as="sourcePoint" />
            <mxPoint x="489.57" y="410" as="targetPoint" />
            <mxPoint as="offset" />
          </mxGeometry>
        </mxCell>
        <mxCell id="bWVU-9dq-vD-51jnF8fI-31" value="&amp;lt;&amp;lt;include&amp;gt;&amp;gt;" style="html=1;verticalAlign=bottom;labelBackgroundColor=none;endArrow=open;endFill=0;dashed=1;rounded=0;entryX=0.5;entryY=0;entryDx=0;entryDy=0;exitX=0.5;exitY=1;exitDx=0;exitDy=0;" parent="1" edge="1">
          <mxGeometry x="0.2" width="160" relative="1" as="geometry">
            <mxPoint x="589.5699999999999" y="360" as="sourcePoint" />
            <mxPoint x="589.5699999999999" y="410" as="targetPoint" />
            <mxPoint as="offset" />
          </mxGeometry>
        </mxCell>
        <mxCell id="bWVU-9dq-vD-51jnF8fI-36" style="edgeStyle=orthogonalEdgeStyle;rounded=0;orthogonalLoop=1;jettySize=auto;html=1;exitX=1;exitY=0.5;exitDx=0;exitDy=0;fontFamily=Helvetica;fontSize=12;fontColor=default;fontStyle=0;" parent="1" source="bWVU-9dq-vD-51jnF8fI-34" target="mCKGkqLL3HLn8yg70_FA-19" edge="1">
          <mxGeometry relative="1" as="geometry" />
        </mxCell>
        <mxCell id="bWVU-9dq-vD-51jnF8fI-34" value="Input Data&lt;br&gt;(Images)" style="rounded=1;whiteSpace=wrap;html=1;" parent="1" vertex="1">
          <mxGeometry x="135" y="320" width="80" height="40" as="geometry" />
        </mxCell>
        <mxCell id="LBkVl-cwmhyP7xec1Vsl-2" value="&amp;lt;&amp;lt;include&amp;gt;&amp;gt;" style="html=1;verticalAlign=bottom;labelBackgroundColor=none;endArrow=open;endFill=0;dashed=1;rounded=0;entryX=0.5;entryY=0;entryDx=0;entryDy=0;exitX=0.5;exitY=1;exitDx=0;exitDy=0;" edge="1" parent="1" source="bWVU-9dq-vD-51jnF8fI-34" target="mCKGkqLL3HLn8yg70_FA-15">
          <mxGeometry x="0.2" width="160" relative="1" as="geometry">
            <mxPoint x="175" y="370" as="sourcePoint" />
            <mxPoint x="174.5" y="420" as="targetPoint" />
            <mxPoint as="offset" />
          </mxGeometry>
        </mxCell>
      </root>
    </mxGraphModel>
  </diagram>
</mxfile>
